<svg width="188" height="43" viewBox="0 0 188 43" fill="none" xmlns="http://www.w3.org/2000/svg">
<g filter="url(#filter0_d_1001_2)">
<path d="M26.0117 19.9141C26.0117 21.8932 25.7904 23.7552 25.3477 25.5C24.9049 27.2318 24.2344 28.7487 23.3359 30.0508C22.4375 31.3398 21.2982 32.3555 19.918 33.0977C18.5508 33.8529 16.9297 34.2305 15.0547 34.2305C13.1927 34.2305 11.5716 33.8529 10.1914 33.0977C8.82422 32.3555 7.6849 31.3398 6.77344 30.0508C5.875 28.7487 5.20443 27.2318 4.76172 25.5C4.31901 23.7552 4.09766 21.8932 4.09766 19.9141C4.09766 18.4557 4.23438 17.0495 4.50781 15.6953C4.78125 14.3411 5.15885 13.0781 5.64062 11.9062C6.1224 10.7344 6.70182 9.66667 7.37891 8.70312C8.05599 7.73958 8.79818 6.91927 9.60547 6.24219C10.4258 5.55208 11.2917 5.01823 12.2031 4.64062C13.1276 4.26302 14.0781 4.07422 15.0547 4.07422C16.6953 4.07422 18.1862 4.47786 19.5273 5.28516C20.8815 6.07943 22.0339 7.1862 22.9844 8.60547C23.9479 10.0247 24.6901 11.6979 25.2109 13.625C25.7448 15.5521 26.0117 17.6484 26.0117 19.9141ZM18.0234 18.2344C18.0234 17.2578 17.9453 16.3594 17.7891 15.5391C17.6328 14.7057 17.418 13.9896 17.1445 13.3906C16.8841 12.7786 16.5716 12.3034 16.207 11.9648C15.8424 11.6133 15.4583 11.4375 15.0547 11.4375C14.6641 11.4375 14.293 11.6458 13.9414 12.0625C13.5898 12.4661 13.2773 12.9935 13.0039 13.6445C12.7435 14.2956 12.5352 15.0247 12.3789 15.832C12.2227 16.6393 12.1445 17.4401 12.1445 18.2344C12.1445 19.0026 12.2096 19.7188 12.3398 20.3828C12.4831 21.0339 12.6784 21.6003 12.9258 22.082C13.1732 22.5638 13.4727 22.9479 13.8242 23.2344C14.1888 23.5078 14.599 23.6445 15.0547 23.6445C15.4974 23.6445 15.901 23.5078 16.2656 23.2344C16.6432 22.9479 16.9557 22.5638 17.2031 22.082C17.4635 21.6003 17.6654 21.0339 17.8086 20.3828C17.9518 19.7188 18.0234 19.0026 18.0234 18.2344ZM44.6836 16.4375C44.6836 16.9844 44.5859 17.5312 44.3906 18.0781C44.2083 18.625 43.9414 19.1198 43.5898 19.5625C43.2383 19.9922 42.8021 20.3503 42.2812 20.6367C41.7734 20.9102 41.2005 21.0469 40.5625 21.0469C39.9896 21.0469 39.5013 20.9492 39.0977 20.7539C38.694 20.5586 38.362 20.3047 38.1016 19.9922C37.8411 19.6797 37.6458 19.3216 37.5156 18.918C37.3984 18.5013 37.3398 18.0781 37.3398 17.6484C37.3398 16.737 37.5612 15.9492 38.0039 15.2852C38.069 15.5065 38.1602 15.6758 38.2773 15.793C38.4076 15.8971 38.5247 15.9753 38.6289 16.0273C38.7591 16.0794 38.8893 16.112 39.0195 16.125C39.3971 16.125 39.638 16.0404 39.7422 15.8711C39.8464 15.7018 39.9115 15.5065 39.9375 15.2852C39.9375 15.0638 39.8529 14.849 39.6836 14.6406C39.5143 14.4323 39.2214 14.3281 38.8047 14.3281C38.6875 14.3281 38.5182 14.3477 38.2969 14.3867C38.0885 14.4128 37.8477 14.4909 37.5742 14.6211C37.3138 14.7513 37.0469 14.9466 36.7734 15.207C36.5 15.4544 36.2461 15.806 36.0117 16.2617C35.7904 16.7044 35.6081 17.2643 35.4648 17.9414C35.3216 18.6055 35.25 19.4128 35.25 20.3633C35.25 21.3398 35.3932 22.1341 35.6797 22.7461C35.9661 23.3451 36.3047 23.8138 36.6953 24.1523C37.099 24.4779 37.5221 24.6992 37.9648 24.8164C38.4076 24.9336 38.7852 24.9922 39.0977 24.9922C39.3711 24.9922 39.7161 24.9466 40.1328 24.8555C40.5495 24.7513 40.9596 24.569 41.3633 24.3086C41.7799 24.0482 42.1576 23.6901 42.4961 23.2344C42.8346 22.7656 43.0625 22.1667 43.1797 21.4375C43.5312 21.9583 43.8112 22.5833 44.0195 23.3125C44.2279 24.0286 44.332 24.7773 44.332 25.5586C44.332 26.6263 44.1302 27.668 43.7266 28.6836C43.3359 29.6992 42.776 30.6042 42.0469 31.3984C41.3307 32.1797 40.4648 32.8047 39.4492 33.2734C38.4336 33.7552 37.3138 33.9961 36.0898 33.9961C35.1784 33.9961 34.332 33.8464 33.5508 33.5469C32.7695 33.2604 32.0599 32.8568 31.4219 32.3359C30.7969 31.8151 30.237 31.2031 29.7422 30.5C29.2474 29.7839 28.8307 29.0156 28.4922 28.1953C28.1667 27.362 27.9193 26.4896 27.75 25.5781C27.5807 24.6667 27.4961 23.7552 27.4961 22.8438C27.4961 21.8281 27.6068 20.793 27.8281 19.7383C28.0495 18.6836 28.362 17.668 28.7656 16.6914C29.1823 15.7148 29.6901 14.7969 30.2891 13.9375C30.888 13.0781 31.5651 12.3359 32.3203 11.7109C33.0755 11.0729 33.9089 10.5716 34.8203 10.207C35.7318 9.82943 36.7018 9.64062 37.7305 9.64062C38.6549 9.64062 39.4688 9.7513 40.1719 9.97266C40.875 10.194 41.487 10.487 42.0078 10.8516C42.5286 11.2161 42.9583 11.6393 43.2969 12.1211C43.6354 12.5898 43.9089 13.0781 44.1172 13.5859C44.3255 14.0807 44.4688 14.5755 44.5469 15.0703C44.638 15.5651 44.6836 16.0208 44.6836 16.4375ZM66.2852 33.2734C66.0378 33.2474 65.7513 33.2214 65.4258 33.1953C65.1523 33.1693 64.8203 33.1497 64.4297 33.1367C64.0521 33.1237 63.6354 33.1172 63.1797 33.1172C62.5286 33.1172 61.8125 33.1432 61.0312 33.1953C60.263 33.2474 59.4688 33.3451 58.6484 33.4883L58.7266 28C58.2318 29.9401 57.5026 31.4375 56.5391 32.4922C55.5885 33.5469 54.4688 34.0742 53.1797 34.0742C52.776 34.0742 52.3203 34.0221 51.8125 33.918C51.3047 33.8138 50.7839 33.612 50.25 33.3125C49.7292 33.026 49.2148 32.6224 48.707 32.1016C48.2122 31.5807 47.7695 30.9102 47.3789 30.0898C46.9883 29.2565 46.6758 28.2539 46.4414 27.082C46.207 25.8971 46.0898 24.4974 46.0898 22.8828C46.0898 20.6953 46.3112 18.8268 46.7539 17.2773C47.1966 15.7148 47.763 14.4388 48.4531 13.4492C49.1432 12.4596 49.9049 11.737 50.7383 11.2812C51.5716 10.8255 52.3854 10.5977 53.1797 10.5977C53.8568 10.5977 54.4688 10.6953 55.0156 10.8906C55.5755 11.0729 56.0703 11.3138 56.5 11.6133C56.9297 11.8997 57.3008 12.2253 57.6133 12.5898C57.9258 12.9544 58.1797 13.319 58.375 13.6836C58.3359 13.2409 58.2773 12.7721 58.1992 12.2773C58.1211 11.7695 58.0299 11.2487 57.9258 10.7148C58.7721 10.8841 59.6315 10.9948 60.5039 11.0469C61.3763 11.099 62.1836 11.125 62.9258 11.125C63.8112 11.125 64.5273 11.1055 65.0742 11.0664C65.3867 11.0534 65.6732 11.0339 65.9336 11.0078C65.7904 11.6589 65.6602 12.388 65.543 13.1953C65.4258 14.0026 65.3216 14.8685 65.2305 15.793C65.1523 16.7044 65.0872 17.668 65.0352 18.6836C64.9961 19.6862 64.9766 20.7148 64.9766 21.7695C64.9766 23.7357 65.0742 25.7083 65.2695 27.6875C65.4648 29.6667 65.8034 31.5286 66.2852 33.2734ZM58.2578 22.082V18.918C58.2578 18.5664 58.2383 18.2083 58.1992 17.8438C58.1602 17.4792 58.069 17.1471 57.9258 16.8477C57.7956 16.5482 57.6003 16.3073 57.3398 16.125C57.0794 15.9297 56.7279 15.832 56.2852 15.832C55.8164 15.832 55.4258 15.9948 55.1133 16.3203C54.8138 16.6458 54.5664 17.0951 54.3711 17.668C54.1888 18.2279 54.0586 18.8984 53.9805 19.6797C53.9154 20.4479 53.8828 21.2878 53.8828 22.1992C53.8828 22.7201 53.9154 23.2474 53.9805 23.7812C54.0586 24.3151 54.1823 24.8034 54.3516 25.2461C54.5208 25.6758 54.7487 26.0273 55.0352 26.3008C55.3216 26.5742 55.6732 26.7109 56.0898 26.7109C56.5586 26.7109 56.9362 26.5482 57.2227 26.2227C57.5091 25.8971 57.724 25.4935 57.8672 25.0117C58.0234 24.5299 58.1276 24.0286 58.1797 23.5078C58.2318 22.974 58.2578 22.4987 58.2578 22.082ZM78.5312 15.2852C78.1276 15.2852 77.763 15.4023 77.4375 15.6367C77.112 15.8581 76.819 16.1771 76.5586 16.5938C76.3112 16.9974 76.0898 17.4857 75.8945 18.0586C75.7122 18.6315 75.5625 19.263 75.4453 19.9531C75.4453 21.0599 75.4714 22.1797 75.5234 23.3125C75.5755 24.4453 75.6602 25.5651 75.7773 26.6719C75.8945 27.7786 76.0443 28.8594 76.2266 29.9141C76.4219 30.9688 76.6562 31.9714 76.9297 32.9219C76.7214 32.9089 76.4805 32.8893 76.207 32.8633C75.9727 32.8503 75.6862 32.8372 75.3477 32.8242C75.0221 32.8112 74.6445 32.8047 74.2148 32.8047C73.4076 32.8047 72.4701 32.8438 71.4023 32.9219C70.3477 32.987 69.1758 33.1172 67.8867 33.3125C68.043 32.5833 68.1797 31.6914 68.2969 30.6367C68.4141 29.582 68.5117 28.4362 68.5898 27.1992C68.668 25.9622 68.7266 24.6732 68.7656 23.332C68.8177 21.9779 68.8438 20.6432 68.8438 19.3281C68.8438 18.3516 68.8307 17.3945 68.8047 16.457C68.7786 15.5195 68.7396 14.6341 68.6875 13.8008C68.6484 12.9674 68.5898 12.1992 68.5117 11.4961C68.4336 10.793 68.3424 10.1875 68.2383 9.67969C69.293 9.86198 70.25 9.99219 71.1094 10.0703C71.9818 10.1354 72.763 10.168 73.4531 10.168C73.8958 10.168 74.2865 10.1615 74.625 10.1484C74.9635 10.1224 75.2565 10.0964 75.5039 10.0703C75.7773 10.0312 76.0247 9.99219 76.2461 9.95312C76.0898 10.6042 75.9727 11.3268 75.8945 12.1211C76.5716 11.3008 77.3073 10.6953 78.1016 10.3047C78.9089 9.91406 79.6641 9.71875 80.3672 9.71875C81.5391 9.71875 82.5286 9.93359 83.3359 10.3633C84.1432 10.7799 84.7943 11.3333 85.2891 12.0234C85.7839 12.7005 86.1419 13.4753 86.3633 14.3477C86.5846 15.2201 86.6953 16.1055 86.6953 17.0039C86.6953 17.8763 86.5716 18.7292 86.3242 19.5625C86.0768 20.3958 85.7188 21.1445 85.25 21.8086C84.7812 22.4596 84.2018 22.987 83.5117 23.3906C82.8216 23.7943 82.0404 23.9961 81.168 23.9961C80.3997 23.9961 79.7422 23.8659 79.1953 23.6055C78.6615 23.3451 78.2188 23.0065 77.8672 22.5898C77.5156 22.1732 77.2552 21.7174 77.0859 21.2227C76.9297 20.7148 76.8516 20.2135 76.8516 19.7188C76.8516 19.1979 76.9232 18.6901 77.0664 18.1953C77.2227 17.7005 77.444 17.2513 77.7305 16.8477C77.8216 17.1341 77.9323 17.3555 78.0625 17.5117C78.2057 17.6549 78.349 17.7591 78.4922 17.8242C78.6484 17.9023 78.8177 17.9479 79 17.9609C79.4818 17.9609 79.8398 17.8503 80.0742 17.6289C80.3216 17.4076 80.4453 17.1471 80.4453 16.8477C80.4453 16.7044 80.4193 16.5417 80.3672 16.3594C80.3151 16.1771 80.2174 16.0078 80.0742 15.8516C79.944 15.6953 79.7552 15.5651 79.5078 15.4609C79.2604 15.3438 78.9349 15.2852 78.5312 15.2852ZM96.9297 32.9219C96.7083 32.9089 96.4479 32.8893 96.1484 32.8633C95.888 32.8503 95.582 32.8372 95.2305 32.8242C94.8789 32.8112 94.4753 32.8047 94.0195 32.8047C93.1732 32.8047 92.1966 32.8438 91.0898 32.9219C89.9831 32.987 88.7852 33.1172 87.4961 33.3125C87.7435 32.8177 87.9518 32.1992 88.1211 31.457C88.2904 30.7018 88.4271 29.901 88.5312 29.0547C88.6484 28.1953 88.7331 27.3294 88.7852 26.457C88.8503 25.5846 88.8958 24.7839 88.9219 24.0547C88.9479 23.3255 88.9609 22.707 88.9609 22.1992C88.974 21.6914 88.9805 21.3724 88.9805 21.2422C88.9544 19.5495 88.8958 17.9674 88.8047 16.4961C88.7656 15.8711 88.7135 15.2396 88.6484 14.6016C88.5964 13.9635 88.5312 13.3646 88.4531 12.8047C88.375 12.2318 88.2839 11.724 88.1797 11.2812C88.0885 10.8255 87.9779 10.4674 87.8477 10.207C88.9023 10.3893 89.8789 10.513 90.7773 10.5781C91.6758 10.6432 92.4896 10.6758 93.2188 10.6758C93.6875 10.6758 94.1042 10.6693 94.4688 10.6562C94.8464 10.6302 95.1654 10.6042 95.4258 10.5781C95.7383 10.5521 96.0117 10.5195 96.2461 10.4805C96.0117 11.6523 95.8164 13.0651 95.6602 14.7188C95.5169 16.3724 95.4453 18.1432 95.4453 20.0312C95.4453 21.112 95.4714 22.2057 95.5234 23.3125C95.5755 24.4193 95.6602 25.526 95.7773 26.6328C95.8945 27.7266 96.0443 28.8073 96.2266 29.875C96.4219 30.9297 96.6562 31.9453 96.9297 32.9219ZM87.9648 4.99219C87.9648 4.39323 88.0755 3.83333 88.2969 3.3125C88.5312 2.77865 88.8438 2.31641 89.2344 1.92578C89.638 1.52214 90.1068 1.20964 90.6406 0.988281C91.1745 0.753906 91.7409 0.636719 92.3398 0.636719C92.9388 0.636719 93.4987 0.753906 94.0195 0.988281C94.5534 1.20964 95.0156 1.52214 95.4062 1.92578C95.8099 2.31641 96.1224 2.77865 96.3438 3.3125C96.5781 3.83333 96.6953 4.39323 96.6953 4.99219C96.6953 5.59115 96.5781 6.15755 96.3438 6.69141C96.1224 7.22526 95.8099 7.69401 95.4062 8.09766C95.0156 8.48828 94.5534 8.80078 94.0195 9.03516C93.4987 9.25651 92.9388 9.36719 92.3398 9.36719C91.7409 9.36719 91.1745 9.25651 90.6406 9.03516C90.1068 8.80078 89.638 8.48828 89.2344 8.09766C88.8438 7.69401 88.5312 7.22526 88.2969 6.69141C88.0755 6.15755 87.9648 5.59115 87.9648 4.99219ZM118.746 33.3906C118.342 33.3255 117.9 33.2799 117.418 33.2539C116.936 33.2409 116.435 33.2344 115.914 33.2344C115.289 33.2344 114.651 33.2474 114 33.2734C113.362 33.3125 112.737 33.3581 112.125 33.4102C111.513 33.4622 110.934 33.5208 110.387 33.5859C109.84 33.651 109.365 33.7096 108.961 33.7617C109.521 31.8737 109.951 29.8555 110.25 27.707C110.562 25.5586 110.719 23.1758 110.719 20.5586C110.719 20.3633 110.712 20.1029 110.699 19.7773C110.699 19.4518 110.686 19.1003 110.66 18.7227C110.634 18.3451 110.589 17.9674 110.523 17.5898C110.471 17.1992 110.387 16.8477 110.27 16.5352C110.165 16.2227 110.029 15.9688 109.859 15.7734C109.69 15.5781 109.482 15.4805 109.234 15.4805C108.87 15.4805 108.512 15.6107 108.16 15.8711C107.822 16.1315 107.516 16.4766 107.242 16.9062C106.982 17.3359 106.767 17.8307 106.598 18.3906C106.441 18.9505 106.363 19.5299 106.363 20.1289C106.363 21.2096 106.389 22.3099 106.441 23.4297C106.493 24.5365 106.578 25.6367 106.695 26.7305C106.812 27.8242 106.962 28.8984 107.145 29.9531C107.327 30.9948 107.555 31.9844 107.828 32.9219C107.607 32.9089 107.346 32.8893 107.047 32.8633C106.786 32.8503 106.48 32.8372 106.129 32.8242C105.777 32.8112 105.374 32.8047 104.918 32.8047C104.072 32.8047 103.095 32.8438 101.988 32.9219C100.882 32.987 99.6836 33.1172 98.3945 33.3125C98.5508 32.5833 98.6875 31.6914 98.8047 30.6367C98.9219 29.582 99.0195 28.4362 99.0977 27.1992C99.1758 25.9622 99.2344 24.6732 99.2734 23.332C99.3255 21.9779 99.3516 20.6432 99.3516 19.3281C99.3516 18.3516 99.3385 17.3945 99.3125 16.457C99.2865 15.5195 99.2474 14.6341 99.1953 13.8008C99.1562 12.9674 99.0977 12.1992 99.0195 11.4961C98.9414 10.793 98.8503 10.1875 98.7461 9.67969C99.8008 9.86198 100.777 9.99219 101.676 10.0703C102.574 10.1354 103.388 10.168 104.117 10.168C104.586 10.168 105.003 10.1615 105.367 10.1484C105.745 10.1224 106.064 10.0964 106.324 10.0703C106.637 10.0312 106.91 9.99219 107.145 9.95312C107.066 10.3568 106.988 10.7865 106.91 11.2422C106.845 11.6979 106.78 12.1927 106.715 12.7266C107.145 12.1797 107.6 11.7044 108.082 11.3008C108.564 10.8841 109.046 10.5391 109.527 10.2656C110.022 9.99219 110.51 9.79036 110.992 9.66016C111.474 9.51693 111.93 9.44531 112.359 9.44531C113.297 9.44531 114.104 9.64062 114.781 10.0312C115.471 10.4089 116.038 11.0078 116.48 11.8281C116.936 12.6484 117.275 13.6966 117.496 14.9727C117.717 16.2487 117.828 17.7786 117.828 19.5625C117.828 20.7865 117.828 22.0299 117.828 23.293C117.841 24.556 117.874 25.793 117.926 27.0039C117.978 28.2148 118.069 29.3672 118.199 30.4609C118.329 31.5417 118.512 32.5182 118.746 33.3906ZM140.348 33.2734C140.1 33.2474 139.814 33.2214 139.488 33.1953C139.215 33.1693 138.883 33.1497 138.492 33.1367C138.115 33.1237 137.698 33.1172 137.242 33.1172C136.591 33.1172 135.875 33.1432 135.094 33.1953C134.326 33.2474 133.531 33.3451 132.711 33.4883L132.789 28C132.294 29.9401 131.565 31.4375 130.602 32.4922C129.651 33.5469 128.531 34.0742 127.242 34.0742C126.839 34.0742 126.383 34.0221 125.875 33.918C125.367 33.8138 124.846 33.612 124.312 33.3125C123.792 33.026 123.277 32.6224 122.77 32.1016C122.275 31.5807 121.832 30.9102 121.441 30.0898C121.051 29.2565 120.738 28.2539 120.504 27.082C120.27 25.8971 120.152 24.4974 120.152 22.8828C120.152 20.6953 120.374 18.8268 120.816 17.2773C121.259 15.7148 121.826 14.4388 122.516 13.4492C123.206 12.4596 123.967 11.737 124.801 11.2812C125.634 10.8255 126.448 10.5977 127.242 10.5977C127.919 10.5977 128.531 10.6953 129.078 10.8906C129.638 11.0729 130.133 11.3138 130.562 11.6133C130.992 11.8997 131.363 12.2253 131.676 12.5898C131.988 12.9544 132.242 13.319 132.438 13.6836C132.398 13.2409 132.34 12.7721 132.262 12.2773C132.184 11.7695 132.092 11.2487 131.988 10.7148C132.835 10.8841 133.694 10.9948 134.566 11.0469C135.439 11.099 136.246 11.125 136.988 11.125C137.874 11.125 138.59 11.1055 139.137 11.0664C139.449 11.0534 139.736 11.0339 139.996 11.0078C139.853 11.6589 139.723 12.388 139.605 13.1953C139.488 14.0026 139.384 14.8685 139.293 15.793C139.215 16.7044 139.15 17.668 139.098 18.6836C139.059 19.6862 139.039 20.7148 139.039 21.7695C139.039 23.7357 139.137 25.7083 139.332 27.6875C139.527 29.6667 139.866 31.5286 140.348 33.2734ZM132.32 22.082V18.918C132.32 18.5664 132.301 18.2083 132.262 17.8438C132.223 17.4792 132.132 17.1471 131.988 16.8477C131.858 16.5482 131.663 16.3073 131.402 16.125C131.142 15.9297 130.79 15.832 130.348 15.832C129.879 15.832 129.488 15.9948 129.176 16.3203C128.876 16.6458 128.629 17.0951 128.434 17.668C128.251 18.2279 128.121 18.8984 128.043 19.6797C127.978 20.4479 127.945 21.2878 127.945 22.1992C127.945 22.7201 127.978 23.2474 128.043 23.7812C128.121 24.3151 128.245 24.8034 128.414 25.2461C128.583 25.6758 128.811 26.0273 129.098 26.3008C129.384 26.5742 129.736 26.7109 130.152 26.7109C130.621 26.7109 130.999 26.5482 131.285 26.2227C131.572 25.8971 131.786 25.4935 131.93 25.0117C132.086 24.5299 132.19 24.0286 132.242 23.5078C132.294 22.974 132.32 22.4987 132.32 22.082ZM162.301 33.3906C161.897 33.3255 161.454 33.2799 160.973 33.2539C160.491 33.2409 159.99 33.2344 159.469 33.2344C158.844 33.2344 158.206 33.2474 157.555 33.2734C156.917 33.3125 156.292 33.3581 155.68 33.4102C155.068 33.4622 154.488 33.5208 153.941 33.5859C153.395 33.651 152.919 33.7096 152.516 33.7617C153.076 31.8737 153.505 29.8555 153.805 27.707C154.117 25.5586 154.273 23.1758 154.273 20.5586C154.273 20.3633 154.267 20.1029 154.254 19.7773C154.254 19.4518 154.241 19.1003 154.215 18.7227C154.189 18.3451 154.143 17.9674 154.078 17.5898C154.026 17.1992 153.941 16.8477 153.824 16.5352C153.72 16.2227 153.583 15.9688 153.414 15.7734C153.245 15.5781 153.036 15.4805 152.789 15.4805C152.424 15.4805 152.066 15.6107 151.715 15.8711C151.376 16.1315 151.07 16.4766 150.797 16.9062C150.536 17.3359 150.322 17.8307 150.152 18.3906C149.996 18.9505 149.918 19.5299 149.918 20.1289C149.918 21.2096 149.944 22.3099 149.996 23.4297C150.048 24.5365 150.133 25.6367 150.25 26.7305C150.367 27.8242 150.517 28.8984 150.699 29.9531C150.882 30.9948 151.109 31.9844 151.383 32.9219C151.161 32.9089 150.901 32.8893 150.602 32.8633C150.341 32.8503 150.035 32.8372 149.684 32.8242C149.332 32.8112 148.928 32.8047 148.473 32.8047C147.626 32.8047 146.65 32.8438 145.543 32.9219C144.436 32.987 143.238 33.1172 141.949 33.3125C142.105 32.5833 142.242 31.6914 142.359 30.6367C142.477 29.582 142.574 28.4362 142.652 27.1992C142.73 25.9622 142.789 24.6732 142.828 23.332C142.88 21.9779 142.906 20.6432 142.906 19.3281C142.906 18.3516 142.893 17.3945 142.867 16.457C142.841 15.5195 142.802 14.6341 142.75 13.8008C142.711 12.9674 142.652 12.1992 142.574 11.4961C142.496 10.793 142.405 10.1875 142.301 9.67969C143.355 9.86198 144.332 9.99219 145.23 10.0703C146.129 10.1354 146.943 10.168 147.672 10.168C148.141 10.168 148.557 10.1615 148.922 10.1484C149.299 10.1224 149.618 10.0964 149.879 10.0703C150.191 10.0312 150.465 9.99219 150.699 9.95312C150.621 10.3568 150.543 10.7865 150.465 11.2422C150.4 11.6979 150.335 12.1927 150.27 12.7266C150.699 12.1797 151.155 11.7044 151.637 11.3008C152.118 10.8841 152.6 10.5391 153.082 10.2656C153.577 9.99219 154.065 9.79036 154.547 9.66016C155.029 9.51693 155.484 9.44531 155.914 9.44531C156.852 9.44531 157.659 9.64062 158.336 10.0312C159.026 10.4089 159.592 11.0078 160.035 11.8281C160.491 12.6484 160.829 13.6966 161.051 14.9727C161.272 16.2487 161.383 17.7786 161.383 19.5625C161.383 20.7865 161.383 22.0299 161.383 23.293C161.396 24.556 161.428 25.793 161.48 27.0039C161.533 28.2148 161.624 29.3672 161.754 30.4609C161.884 31.5417 162.066 32.5182 162.301 33.3906ZM183.902 33.2734C183.655 33.2474 183.368 33.2214 183.043 33.1953C182.77 33.1693 182.438 33.1497 182.047 33.1367C181.669 33.1237 181.253 33.1172 180.797 33.1172C180.146 33.1172 179.43 33.1432 178.648 33.1953C177.88 33.2474 177.086 33.3451 176.266 33.4883L176.344 28C175.849 29.9401 175.12 31.4375 174.156 32.4922C173.206 33.5469 172.086 34.0742 170.797 34.0742C170.393 34.0742 169.938 34.0221 169.43 33.918C168.922 33.8138 168.401 33.612 167.867 33.3125C167.346 33.026 166.832 32.6224 166.324 32.1016C165.829 31.5807 165.387 30.9102 164.996 30.0898C164.605 29.2565 164.293 28.2539 164.059 27.082C163.824 25.8971 163.707 24.4974 163.707 22.8828C163.707 20.6953 163.928 18.8268 164.371 17.2773C164.814 15.7148 165.38 14.4388 166.07 13.4492C166.76 12.4596 167.522 11.737 168.355 11.2812C169.189 10.8255 170.003 10.5977 170.797 10.5977C171.474 10.5977 172.086 10.6953 172.633 10.8906C173.193 11.0729 173.688 11.3138 174.117 11.6133C174.547 11.8997 174.918 12.2253 175.23 12.5898C175.543 12.9544 175.797 13.319 175.992 13.6836C175.953 13.2409 175.895 12.7721 175.816 12.2773C175.738 11.7695 175.647 11.2487 175.543 10.7148C176.389 10.8841 177.249 10.9948 178.121 11.0469C178.993 11.099 179.801 11.125 180.543 11.125C181.428 11.125 182.145 11.1055 182.691 11.0664C183.004 11.0534 183.29 11.0339 183.551 11.0078C183.408 11.6589 183.277 12.388 183.16 13.1953C183.043 14.0026 182.939 14.8685 182.848 15.793C182.77 16.7044 182.704 17.668 182.652 18.6836C182.613 19.6862 182.594 20.7148 182.594 21.7695C182.594 23.7357 182.691 25.7083 182.887 27.6875C183.082 29.6667 183.421 31.5286 183.902 33.2734ZM175.875 22.082V18.918C175.875 18.5664 175.855 18.2083 175.816 17.8438C175.777 17.4792 175.686 17.1471 175.543 16.8477C175.413 16.5482 175.217 16.3073 174.957 16.125C174.697 15.9297 174.345 15.832 173.902 15.832C173.434 15.832 173.043 15.9948 172.73 16.3203C172.431 16.6458 172.184 17.0951 171.988 17.668C171.806 18.2279 171.676 18.8984 171.598 19.6797C171.533 20.4479 171.5 21.2878 171.5 22.1992C171.5 22.7201 171.533 23.2474 171.598 23.7812C171.676 24.3151 171.799 24.8034 171.969 25.2461C172.138 25.6758 172.366 26.0273 172.652 26.3008C172.939 26.5742 173.29 26.7109 173.707 26.7109C174.176 26.7109 174.553 26.5482 174.84 26.2227C175.126 25.8971 175.341 25.4935 175.484 25.0117C175.641 24.5299 175.745 24.0286 175.797 23.5078C175.849 22.974 175.875 22.4987 175.875 22.082Z" fill="#1EB62B"/>
</g>
<defs>
<filter id="filter0_d_1001_2" x="0.0976562" y="0.636719" width="187.805" height="41.5938" filterUnits="userSpaceOnUse" color-interpolation-filters="sRGB">
<feFlood flood-opacity="0" result="BackgroundImageFix"/>
<feColorMatrix in="SourceAlpha" type="matrix" values="0 0 0 0 0 0 0 0 0 0 0 0 0 0 0 0 0 0 127 0" result="hardAlpha"/>
<feOffset dy="4"/>
<feGaussianBlur stdDeviation="2"/>
<feComposite in2="hardAlpha" operator="out"/>
<feColorMatrix type="matrix" values="0 0 0 0 0 0 0 0 0 0 0 0 0 0 0 0 0 0 0.25 0"/>
<feBlend mode="normal" in2="BackgroundImageFix" result="effect1_dropShadow_1001_2"/>
<feBlend mode="normal" in="SourceGraphic" in2="effect1_dropShadow_1001_2" result="shape"/>
</filter>
</defs>
</svg>
